<svg width="16" height="15" viewBox="0 0 16 15" fill="none" xmlns="http://www.w3.org/2000/svg">
<path d="M8.00008 5.5C9.10008 5.5 10.0001 6.4 10.0001 7.5C10.0001 8.6 9.10008 9.5 8.00008 9.5C6.90008 9.5 6.00008 8.6 6.00008 7.5C6.00008 6.4 6.90008 5.5 8.00008 5.5ZM8.00008 4.16667C6.16008 4.16667 4.66675 5.66 4.66675 7.5C4.66675 9.34 6.16008 10.8333 8.00008 10.8333C9.84008 10.8333 11.3334 9.34 11.3334 7.5C11.3334 5.66 9.84008 4.16667 8.00008 4.16667ZM1.33341 8.16667H2.66675C3.03341 8.16667 3.33341 7.86667 3.33341 7.5C3.33341 7.13333 3.03341 6.83333 2.66675 6.83333H1.33341C0.966748 6.83333 0.666748 7.13333 0.666748 7.5C0.666748 7.86667 0.966748 8.16667 1.33341 8.16667ZM13.3334 8.16667H14.6667C15.0334 8.16667 15.3334 7.86667 15.3334 7.5C15.3334 7.13333 15.0334 6.83333 14.6667 6.83333H13.3334C12.9667 6.83333 12.6667 7.13333 12.6667 7.5C12.6667 7.86667 12.9667 8.16667 13.3334 8.16667ZM7.33341 0.833335V2.16667C7.33341 2.53333 7.63341 2.83333 8.00008 2.83333C8.36675 2.83333 8.66675 2.53333 8.66675 2.16667V0.833335C8.66675 0.466668 8.36675 0.166668 8.00008 0.166668C7.63341 0.166668 7.33341 0.466668 7.33341 0.833335ZM7.33341 12.8333V14.1667C7.33341 14.5333 7.63341 14.8333 8.00008 14.8333C8.36675 14.8333 8.66675 14.5333 8.66675 14.1667V12.8333C8.66675 12.4667 8.36675 12.1667 8.00008 12.1667C7.63341 12.1667 7.33341 12.4667 7.33341 12.8333ZM3.99341 2.55333C3.73341 2.29333 3.30675 2.29333 3.05341 2.55333C2.79341 2.81333 2.79341 3.24 3.05341 3.49333L3.76008 4.2C4.02008 4.46 4.44675 4.46 4.70008 4.2C4.95341 3.94 4.96008 3.51333 4.70008 3.26L3.99341 2.55333ZM12.2401 10.8C11.9801 10.54 11.5534 10.54 11.3001 10.8C11.0401 11.06 11.0401 11.4867 11.3001 11.74L12.0067 12.4467C12.2667 12.7067 12.6934 12.7067 12.9467 12.4467C13.2067 12.1867 13.2067 11.76 12.9467 11.5067L12.2401 10.8ZM12.9467 3.49333C13.2067 3.23333 13.2067 2.80667 12.9467 2.55333C12.6867 2.29333 12.2601 2.29333 12.0067 2.55333L11.3001 3.26C11.0401 3.52 11.0401 3.94667 11.3001 4.2C11.5601 4.45333 11.9867 4.46 12.2401 4.2L12.9467 3.49333ZM4.70008 11.74C4.96008 11.48 4.96008 11.0533 4.70008 10.8C4.44008 10.54 4.01341 10.54 3.76008 10.8L3.05341 11.5067C2.79341 11.7667 2.79341 12.1933 3.05341 12.4467C3.31341 12.7 3.74008 12.7067 3.99341 12.4467L4.70008 11.74Z" fill="currentColor"/>
</svg>
